<svg xmlns="http://www.w3.org/2000/svg" viewBox="0 0 24 24"><path color="currentColor" fill-rule="evenodd" d="M12 18c3.3137 0 6-2.6863 6-6 0-3.31371-2.6863-6-6-6-3.31371 0-6 2.68629-6 6 0 3.3137 2.68629 6 6 6Zm0-2c2.2091 0 4-1.7909 4-4 0-2.20914-1.7909-4-4-4-2.20914 0-4 1.79086-4 4 0 2.2091 1.79086 4 4 4Z" clip-rule="evenodd"/><path color="currentColor" d="M18 5c-.5523 0-1 .44772-1 1s.4477 1 1 1 1-.44772 1-1-.4477-1-1-1Z"/><path color="currentColor" fill-rule="evenodd" d="M1.65396 4.27606C1 5.55953 1 7.23969 1 10.6v2.8c0 3.3603 0 5.0405.65396 6.3239a5.99963 5.99963 0 0 0 2.6221 2.6221C5.55953 23 7.23969 23 10.6 23h2.8c3.3603 0 5.0405 0 6.3239-.654a5.99932 5.99932 0 0 0 2.6221-2.6221C23 18.4405 23 16.7603 23 13.4v-2.8c0-3.36031 0-5.04047-.654-6.32394a5.99963 5.99963 0 0 0-2.6221-2.6221C18.4405 1 16.7603 1 13.4 1h-2.8c-3.36031 0-5.04047 0-6.32394.65396a5.99994 5.99994 0 0 0-2.6221 2.6221ZM13.4 3h-2.8c-1.71316 0-2.87775.00156-3.77792.0751-.87684.07164-1.32524.20149-1.63804.36087a4.00008 4.00008 0 0 0-1.74807 1.74807c-.15938.3128-.28923.7612-.36087 1.63804C3.00156 7.72225 3 8.88684 3 10.6v2.8c0 1.7132.00156 2.8777.0751 3.7779.07164.8769.20149 1.3253.36087 1.6381a4.00018 4.00018 0 0 0 1.74807 1.748c.3128.1594.7612.2893 1.63804.3609C7.72225 20.9984 8.88684 21 10.6 21h2.8c1.7132 0 2.8777-.0016 3.7779-.0751.8769-.0716 1.3253-.2015 1.6381-.3609a4.00028 4.00028 0 0 0 1.748-1.748c.1594-.3128.2893-.7612.3609-1.6381.0735-.9002.0751-2.0647.0751-3.7779v-2.8c0-1.71316-.0016-2.87775-.0751-3.77792-.0716-.87684-.2015-1.32524-.3609-1.63804a4.00018 4.00018 0 0 0-1.748-1.74807c-.3128-.15938-.7612-.28923-1.6381-.36087C16.2777 3.00156 15.1132 3 13.4 3Z" clip-rule="evenodd"/></svg>