<svg xmlns="http://www.w3.org/2000/svg" fill="none" viewBox="0 0 24 24"><path fill="#0F0F0F" d="M6.5 8C7.32843 8 8 7.32843 8 6.5S7.32843 5 6.5 5 5 5.67157 5 6.5 5.67157 8 6.5 8ZM5 10c0-.55228.44772-1 1-1h1c.55228 0 1 .44771 1 1v8c0 .5523-.44772 1-1 1H6c-.55228 0-1-.4477-1-1v-8ZM11 19h1c.5523 0 1-.4477 1-1v-4.5c0-1.5 3-2.5 3-.5v5.0004c0 .5523.4477.9996 1 .9996h1c.5523 0 1-.4477 1-1v-6c0-2-1.5-3-3.5-3S13 10.5 13 10.5V10c0-.55229-.4477-1-1-1h-1c-.5523 0-1 .44772-1 1v8c0 .5523.4477 1 1 1Z"/><path fill="#0F0F0F" fill-rule="evenodd" d="M20 1c1.6569 0 3 1.34315 3 3v16c0 1.6569-1.3431 3-3 3H4c-1.65685 0-3-1.3431-3-3V4c0-1.65685 1.34315-3 3-3h16Zm0 2c.5523 0 1 .44772 1 1v16c0 .5523-.4477 1-1 1H4c-.55228 0-1-.4477-1-1V4c0-.55228.44772-1 1-1h16Z" clip-rule="evenodd"/></svg>